<svg  xmlns="http://www.w3.org/2000/svg" xmlns:xlink="http://www.w3.org/1999/xlink">
    <symbol id="facebook" viewBox="0 0 10 16">
        <path d="M8.71875 9L9.15625 6.125H6.375V4.25C6.375 3.4375 6.75 2.6875 8 2.6875H9.28125V0.21875C9.28125 0.21875 8.125 0 7.03125 0C4.75 0 3.25 1.40625 3.25 3.90625V6.125H0.6875V9H3.25V16H6.375V9H8.71875Z"/>
    </symbol>
    <symbol id="instagram" viewBox="0 0 15 15">
        <path d="M8 3.40625C6 3.40625 4.40625 5.03125 4.40625 7C4.40625 9 6 10.5938 8 10.5938C9.96875 10.5938 11.5938 9 11.5938 7C11.5938 5.03125 9.96875 3.40625 8 3.40625ZM8 9.34375C6.71875 9.34375 5.65625 8.3125 5.65625 7C5.65625 5.71875 6.6875 4.6875 8 4.6875C9.28125 4.6875 10.3125 5.71875 10.3125 7C10.3125 8.3125 9.28125 9.34375 8 9.34375ZM12.5625 3.28125C12.5625 2.8125 12.1875 2.4375 11.7188 2.4375C11.25 2.4375 10.875 2.8125 10.875 3.28125C10.875 3.75 11.25 4.125 11.7188 4.125C12.1875 4.125 12.5625 3.75 12.5625 3.28125ZM14.9375 4.125C14.875 3 14.625 2 13.8125 1.1875C13 0.375 12 0.125 10.875 0.0625C9.71875 0 6.25 0 5.09375 0.0625C3.96875 0.125 3 0.375 2.15625 1.1875C1.34375 2 1.09375 3 1.03125 4.125C0.96875 5.28125 0.96875 8.75 1.03125 9.90625C1.09375 11.0312 1.34375 12 2.15625 12.8438C3 13.6562 3.96875 13.9062 5.09375 13.9688C6.25 14.0312 9.71875 14.0312 10.875 13.9688C12 13.9062 13 13.6562 13.8125 12.8438C14.625 12 14.875 11.0312 14.9375 9.90625C15 8.75 15 5.28125 14.9375 4.125ZM13.4375 11.125C13.2188 11.75 12.7188 12.2188 12.125 12.4688C11.1875 12.8438 9 12.75 8 12.75C6.96875 12.75 4.78125 12.8438 3.875 12.4688C3.25 12.2188 2.78125 11.75 2.53125 11.125C2.15625 10.2188 2.25 8.03125 2.25 7C2.25 6 2.15625 3.8125 2.53125 2.875C2.78125 2.28125 3.25 1.8125 3.875 1.5625C4.78125 1.1875 6.96875 1.28125 8 1.28125C9 1.28125 11.1875 1.1875 12.125 1.5625C12.7188 1.78125 13.1875 2.28125 13.4375 2.875C13.8125 3.8125 13.7188 6 13.7188 7C13.7188 8.03125 13.8125 10.2188 13.4375 11.125Z"/>
    </symbol>
    <symbol id="twitter" viewBox="0 0 16 14">
        <path d="M14.3438 3.75C14.9688 3.28125 15.5312 2.71875 15.9688 2.0625C15.4062 2.3125 14.75 2.5 14.0938 2.5625C14.7812 2.15625 15.2812 1.53125 15.5312 0.75C14.9062 1.125 14.1875 1.40625 13.4688 1.5625C12.8438 0.90625 12 0.53125 11.0625 0.53125C9.25 0.53125 7.78125 2 7.78125 3.8125C7.78125 4.0625 7.8125 4.3125 7.875 4.5625C5.15625 4.40625 2.71875 3.09375 1.09375 1.125C0.8125 1.59375 0.65625 2.15625 0.65625 2.78125C0.65625 3.90625 1.21875 4.90625 2.125 5.5C1.59375 5.46875 1.0625 5.34375 0.625 5.09375V5.125C0.625 6.71875 1.75 8.03125 3.25 8.34375C3 8.40625 2.6875 8.46875 2.40625 8.46875C2.1875 8.46875 2 8.4375 1.78125 8.40625C2.1875 9.71875 3.40625 10.6562 4.84375 10.6875C3.71875 11.5625 2.3125 12.0938 0.78125 12.0938C0.5 12.0938 0.25 12.0625 0 12.0312C1.4375 12.9688 3.15625 13.5 5.03125 13.5C11.0625 13.5 14.3438 8.53125 14.3438 4.1875C14.3438 4.03125 14.3438 3.90625 14.3438 3.75Z"/>
    </symbol>
    <symbol id="location" viewBox="0 0 9 14">
        <path d="M6.42857 4.5C6.42857 5.68025 5.46596 6.64286 4.28571 6.64286C3.10547 6.64286 2.14286 5.68025 2.14286 4.5C2.14286 3.31975 3.10547 2.35714 4.28571 2.35714C5.46596 2.35714 6.42857 3.31975 6.42857 4.5ZM8.57143 4.5C8.57143 2.13114 6.65458 0.214285 4.28571 0.214285C1.91685 0.214285 0 2.13114 0 4.5C0 5.0106 0.0585938 5.53795 0.276228 5.99833L3.33147 12.4771C3.49888 12.8454 3.88393 13.0714 4.28571 13.0714C4.6875 13.0714 5.07254 12.8454 5.24833 12.4771L8.2952 5.99833C8.51284 5.53795 8.57143 5.0106 8.57143 4.5Z" fill="#2C4058"/>
    </symbol>
    <symbol id="clock" viewBox="0 0 33 33">
        <path d="M16.5,0C7.402,0,0,7.402,0,16.5C0,25.598,7.402,33,16.5,33C25.598,33,33,25.598,33,16.5C33,7.402,25.598,0,16.5,0z
		 M16.5,29C9.607,29,4,23.393,4,16.5C4,9.607,9.607,4,16.5,4C23.393,4,29,9.607,29,16.5C29,23.393,23.393,29,16.5,29z M18.969,7.969
		v9.938c0,1.104-0.896,2-2,2h-6.938c-1.104,0-2-0.896-2-2c0-1.104,0.896-2,2-2h4.938V7.969c0-1.104,0.896-2,2-2
		S18.969,6.863,18.969,7.969z"/>
    </symbol>
    <symbol id="phone" viewBox="0 0 287.32 287.32">
        <path d="M267.749,191.076c-14.595-11.729-27.983-17.431-40.93-17.431c-18.729,0-32.214,11.914-44.423,24.119
	c-1.404,1.405-3.104,2.06-5.349,2.06c-10.288,0.001-28.387-12.883-53.794-38.293c-29.89-29.892-41.191-48.904-33.592-56.506
	c20.6-20.593,27.031-41.237-4.509-80.462C73.861,10.51,62.814,3.68,51.38,3.68c-15.42,0-27.142,12.326-37.484,23.202
	c-1.788,1.88-3.477,3.656-5.133,5.312c-11.689,11.688-11.683,37.182,0.017,68.2c12.837,34.033,38.183,71.055,71.37,104.247
	c25.665,25.663,53.59,46.403,80.758,60.328c23.719,12.158,46.726,18.672,64.783,18.672c0.002,0,0.004,0,0.007,0
	c11.3,0,20.479-2.465,26.541-7.478c12.314-10.181,35.234-29.039,35.081-51.439C287.236,212.71,280.653,201.451,267.749,191.076z"/>
    </symbol>
    <symbol id="mail" viewBox="0 0 16 16">
        <path d="M13 1h-10l-3 9v5h16v-5l-3-9zM11 10v2h-6v-2h-3.9l2.7-8h8.6l2.7 8h-4.1z"></path>
    </symbol>
    <symbol id="location_contact" viewBox="0 0 9 14">
        <path d="M6.42857 4.5C6.42857 5.68025 5.46596 6.64286 4.28571 6.64286C3.10547 6.64286 2.14286 5.68025 2.14286 4.5C2.14286 3.31975 3.10547 2.35714 4.28571 2.35714C5.46596 2.35714 6.42857 3.31975 6.42857 4.5ZM8.57143 4.5C8.57143 2.13114 6.65458 0.214285 4.28571 0.214285C1.91685 0.214285 0 2.13114 0 4.5C0 5.0106 0.0585938 5.53795 0.276228 5.99833L3.33147 12.4771C3.49888 12.8454 3.88393 13.0714 4.28571 13.0714C4.6875 13.0714 5.07254 12.8454 5.24833 12.4771L8.2952 5.99833C8.51284 5.53795 8.57143 5.0106 8.57143 4.5Z"/>
    </symbol>
</svg>

