<?xml version="1.0" standalone="no"?>
<!DOCTYPE svg PUBLIC "-//W3C//DTD SVG 20010904//EN"
 "http://www.w3.org/TR/2001/REC-SVG-20010904/DTD/svg10.dtd">
<svg version="1.0" xmlns="http://www.w3.org/2000/svg"
 width="1192.000000pt" height="340.000000pt" viewBox="0 0 1192.000000 340.000000"
 preserveAspectRatio="xMidYMid meet">

<g transform="translate(0.000000,340.000000) scale(0.100000,-0.100000)"
fill="#FFFFFF" stroke="none">
<path d="M5243 3130 c-127 -176 -136 -186 -339 -369 l-209 -187 -103 -202
c-57 -111 -107 -202 -110 -202 -4 0 -80 23 -170 49 -131 40 -186 62 -283 116
-66 37 -124 63 -128 59 -4 -5 -79 -85 -166 -177 l-158 -168 -29 -97 -28 -97
-128 -127 -129 -128 -124 0 -124 1 -119 48 -119 48 -76 -18 c-59 -14 -115 -39
-241 -110 -91 -51 -169 -92 -175 -92 -24 1 -214 119 -296 184 l-90 72 -135 8
-134 9 -103 57 c-56 31 -146 88 -201 127 l-99 70 -95 -50 c-90 -47 -100 -55
-208 -179 -62 -71 -154 -181 -206 -244 l-93 -114 -228 -137 c-220 -133 -230
-138 -297 -145 -39 -4 -70 -11 -70 -16 0 -5 10 -7 23 -5 12 3 45 8 72 11 40 5
99 34 287 142 l237 135 99 127 c122 154 283 331 320 350 15 8 60 29 99 47 l73
33 6 -37 c5 -33 14 -43 78 -84 l72 -48 -7 -87 -7 -87 46 -59 c25 -32 73 -77
105 -100 55 -39 62 -48 87 -117 20 -55 37 -83 66 -108 l39 -34 3 46 c2 25 6
46 9 46 2 0 18 -9 34 -21 l29 -20 0 40 0 41 54 0 c59 0 59 -1 72 73 3 20 10
37 14 37 7 0 101 -39 108 -45 7 -6 -41 -153 -64 -194 -13 -24 -24 -47 -24 -51
0 -4 25 -41 56 -80 54 -70 57 -77 73 -173 l16 -100 24 52 c14 28 26 51 28 51
3 0 24 -14 48 -30 l44 -31 3 132 3 131 36 -51 35 -51 24 50 c13 27 26 50 29
50 4 0 42 -25 86 -55 75 -52 102 -64 185 -80 34 -7 34 -6 -47 77 -46 46 -83
87 -83 91 0 4 11 7 25 7 32 0 31 5 -2 49 -16 20 -37 65 -49 101 -22 68 -22 69
-164 161 -24 16 -23 16 136 106 138 78 170 92 240 105 l82 15 21 -46 c11 -25
25 -66 31 -91 6 -25 13 -52 16 -62 3 -11 21 -18 55 -23 48 -7 50 -9 86 -69 30
-51 51 -72 115 -114 43 -29 78 -50 78 -47 0 2 -33 82 -74 177 l-75 173 116 7
115 8 97 89 c157 146 164 155 194 255 25 80 33 95 96 165 38 42 114 120 169
174 l99 99 97 -175 96 -175 80 -32 79 -32 29 -75 c27 -69 36 -80 112 -145 l82
-70 42 41 42 42 37 -83 c41 -95 42 -93 28 93 l-8 105 -51 71 c-35 50 -56 92
-70 144 l-21 74 102 199 102 198 216 184 217 183 123 175 c68 96 126 175 129
176 3 0 41 -97 85 -216 l80 -216 63 -55 62 -55 0 -62 c1 -80 41 -282 75 -374
21 -55 31 -71 44 -68 106 31 95 32 192 -31 l89 -58 54 -163 c62 -185 68 -174
-49 -95 l-50 33 -3 -66 c-2 -41 3 -81 12 -107 9 -23 20 -71 26 -107 6 -36 28
-110 49 -165 25 -63 56 -183 86 -325 26 -124 50 -228 54 -233 4 -4 22 13 40
37 17 25 36 48 41 51 11 7 140 -185 210 -313 25 -45 48 -82 51 -82 4 0 12 20
18 44 9 39 8 52 -19 125 -21 58 -30 100 -30 143 l0 62 35 -34 c19 -19 35 -30
35 -24 0 5 -16 60 -35 123 -19 62 -35 116 -35 120 0 3 32 -26 71 -64 l71 -70
-6 34 c-3 19 -9 58 -12 86 l-6 51 42 14 c42 14 42 14 37 55 -3 22 -23 96 -44
165 -31 99 -49 138 -86 190 -26 35 -47 69 -47 75 0 5 -16 109 -35 230 -19 121
-35 223 -35 227 0 8 180 152 184 147 2 -2 53 -80 113 -174 97 -150 115 -184
149 -287 l38 -118 143 0 143 0 0 -97 0 -96 84 -151 84 -151 12 -295 c6 -162
14 -298 18 -301 4 -4 43 -32 87 -64 l80 -57 7 54 c3 29 7 78 7 108 1 34 5 49
10 40 4 -8 34 -118 66 -245 l58 -230 78 -80 c43 -43 81 -77 83 -74 3 3 -2 54
-11 115 -12 81 -29 144 -68 246 l-53 138 24 92 c13 51 24 116 24 143 l0 51 67
14 67 15 -2 60 c-2 33 -5 75 -9 92 -5 32 -4 33 73 69 66 30 106 40 248 61
l168 24 222 167 c351 263 354 266 564 525 56 70 106 127 110 127 4 0 37 -96
73 -213 l66 -212 69 -18 c62 -17 76 -26 139 -87 57 -55 93 -80 193 -129 l123
-61 67 -138 67 -137 158 -21 c157 -22 161 -23 330 -97 l172 -75 291 -22 292
-22 198 -74 c109 -40 199 -72 201 -71 1 2 -89 53 -200 114 l-202 111 -278 36
-277 37 -113 53 c-63 29 -172 70 -243 91 -100 30 -137 45 -164 70 -19 18 -75
65 -125 105 -135 110 -297 272 -388 389 -67 85 -115 131 -267 256 -158 131
-187 151 -200 140 -8 -8 -80 -94 -159 -192 -80 -98 -179 -208 -220 -245 -87
-77 -496 -385 -520 -392 -9 -3 -82 -12 -162 -21 l-145 -17 -191 77 -192 77
-143 162 c-79 88 -209 240 -289 336 l-145 175 -258 157 -257 158 -86 -65 c-47
-36 -90 -65 -96 -65 -12 0 -128 85 -256 187 -57 46 -115 90 -130 99 -17 10
-60 75 -119 179 l-92 164 -260 243 c-143 134 -264 244 -268 246 -4 1 -67 -79
-139 -178z"/>
<path d="M5185 2686 c-85 -36 -92 -45 -94 -114 -1 -47 -74 -130 -159 -180 -37
-22 -80 -54 -96 -70 -25 -27 -27 -35 -21 -73 5 -29 20 -55 47 -85 l40 -44 52
71 c43 60 62 77 118 105 l66 33 38 98 c32 86 45 107 106 169 37 40 68 77 68
83 0 11 -18 20 -65 34 -12 4 -53 -8 -100 -27z"/>
<path d="M5439 2466 c-9 -6 -30 -42 -47 -78 -17 -37 -50 -98 -75 -136 -25 -38
-48 -83 -52 -101 -6 -30 -6 -31 30 -31 l37 0 -30 -34 c-33 -38 -47 -84 -37
-117 6 -18 13 -21 46 -16 29 4 60 -3 126 -29 47 -19 88 -32 91 -29 2 2 -9 26
-25 52 -21 35 -38 49 -58 53 -23 4 -30 13 -41 50 -8 25 -14 80 -14 122 0 68 4
83 35 143 30 55 35 76 33 115 -3 43 -5 47 -19 36z"/>
<path d="M3855 2072 c-56 -36 -64 -45 -93 -113 -29 -69 -31 -79 -23 -139 6
-51 5 -72 -7 -97 -9 -18 -13 -36 -9 -39 3 -3 25 4 47 17 34 20 47 36 70 89
l29 65 11 -30 c11 -29 26 -45 43 -45 4 0 17 20 28 44 18 41 18 47 3 87 -10 29
-14 69 -12 119 4 92 -3 95 -87 42z"/>
<path d="M4999 2044 c-19 -14 -49 -33 -68 -41 l-34 -14 21 -21 21 -21 31 27
c25 20 42 26 81 26 l49 0 0 35 c0 33 -2 35 -33 35 -20 0 -47 -10 -68 -26z"/>
<path d="M5079 1870 c-37 -25 -51 -42 -70 -90 -24 -60 -24 -60 -66 -60 l-42 0
-11 -54 c-6 -29 -8 -64 -5 -77 7 -30 -1 -42 -42 -63 -30 -15 -33 -20 -32 -64
1 -85 10 -90 51 -30 21 29 71 86 111 126 69 68 79 75 138 88 35 7 69 13 74 13
6 0 -23 -30 -63 -67 l-72 -67 11 -40 c6 -22 13 -42 14 -44 2 -2 23 10 47 27
30 21 60 32 102 37 l58 7 26 58 c25 55 30 60 88 85 57 24 135 88 122 100 -3 3
-23 9 -44 12 -22 3 -54 17 -72 30 -45 34 -137 73 -171 73 -16 0 -45 7 -64 15
-20 8 -38 15 -39 15 -2 0 -24 -14 -49 -30z"/>
<path d="M1090 1703 c-25 -15 -65 -42 -88 -62 l-44 -35 39 -13 c49 -18 71 -12
111 30 27 28 33 41 30 71 l-3 36 -45 -27z"/>
<path d="M3770 1639 c-26 -48 -17 -61 40 -57 29 3 36 8 44 36 10 37 4 46 -35
55 -22 6 -29 1 -49 -34z"/>
<path d="M9229 1647 c-22 -19 -49 -60 -67 -99 -29 -64 -33 -68 -65 -68 -28 0
-36 -5 -50 -34 -16 -35 -16 -35 15 -61 17 -14 37 -24 45 -20 8 3 26 8 39 11
21 6 24 12 24 57 0 43 6 57 39 101 33 43 70 131 59 141 -2 2 -19 -11 -39 -28z"/>
<path d="M9290 1475 c-88 -140 -122 -170 -213 -185 -64 -12 -69 -14 -92 -54
-21 -36 -25 -56 -25 -127 -1 -129 -15 -206 -52 -274 l-32 -60 29 19 c17 11 44
28 61 40 57 36 148 202 203 368 19 56 32 76 81 122 66 61 103 130 115 215 4
28 5 51 2 51 -3 0 -38 -52 -77 -115z"/>
<path d="M6815 1504 c-8 -65 -1 -77 45 -72 26 2 35 9 43 31 8 25 5 32 -29 62
-22 19 -42 34 -45 35 -4 0 -10 -25 -14 -56z"/>
<path d="M1080 1518 c-42 -12 -50 -22 -50 -70 l0 -38 66 0 c37 0 84 -5 104
-11 31 -10 42 -9 61 4 l22 16 -29 11 c-112 42 -113 42 -119 71 -4 16 -10 29
-13 28 -4 0 -23 -5 -42 -11z"/>
<path d="M904 1483 c-24 -56 -15 -73 41 -73 18 0 25 8 34 44 6 25 11 47 11 49
0 3 -16 7 -36 9 -33 4 -38 1 -50 -29z"/>
<path d="M4373 1464 l-62 -26 -45 21 -46 20 -10 -38 c-9 -35 -14 -40 -58 -50
-34 -9 -61 -26 -98 -62 -50 -49 -51 -50 -160 -69 -60 -10 -136 -30 -168 -43
l-60 -25 42 -21 41 -21 48 29 c63 38 298 107 393 116 70 6 81 10 178 72 99 63
109 74 96 107 -8 21 -17 20 -91 -10z"/>
<path d="M9676 1403 c-15 -4 -17 -11 -12 -41 3 -21 6 -45 6 -54 0 -10 20 -29
48 -45 26 -15 58 -41 72 -58 13 -16 56 -63 95 -103 62 -65 76 -74 127 -86 l57
-13 -23 46 c-13 25 -33 76 -45 113 l-22 67 -100 61 c-55 34 -115 75 -133 91
-34 29 -37 30 -70 22z"/>
<path d="M3390 1300 c0 -16 3 -30 8 -30 4 1 32 14 62 30 l55 29 -62 1 -63 0 0
-30z"/>
<path d="M9333 1263 c-28 -35 -33 -49 -33 -97 0 -56 -1 -57 -35 -71 -27 -12
-36 -23 -45 -56 -6 -22 -20 -55 -30 -72 -18 -29 -18 -33 -3 -49 9 -10 30 -18
49 -18 28 0 38 6 58 38 13 21 27 58 31 82 4 25 16 80 26 124 11 43 19 97 17
119 l-3 41 -32 -41z"/>
<path d="M817 1252 c-48 -36 -80 -79 -71 -94 3 -5 33 -8 67 -8 49 1 68 5 89
23 23 19 58 84 58 108 0 5 -21 9 -47 8 -39 0 -57 -7 -96 -37z"/>
<path d="M6881 1220 c-1 -65 0 -66 43 -109 l45 -44 63 6 c121 11 114 19 -93
98 -21 8 -30 22 -42 62 l-15 52 -1 -65z"/>
<path d="M3140 1202 c0 -27 186 -170 202 -154 3 4 9 23 13 43 l7 37 -44 7
c-23 4 -73 23 -110 41 -38 19 -68 31 -68 26z"/>
<path d="M1224 1182 c-12 -9 -31 -36 -43 -59 l-21 -43 35 0 35 0 0 48 c0 26 5
53 12 60 18 18 6 14 -18 -6z"/>
<path d="M9710 1153 c0 -53 47 -190 83 -240 l30 -42 28 22 c17 14 30 36 34 58
6 35 3 40 -44 84 -27 25 -66 71 -87 101 -20 30 -39 54 -41 54 -1 0 -3 -17 -3
-37z"/>
<path d="M582 1133 c-44 -19 -60 -22 -88 -14 -32 9 -34 8 -59 -36 -14 -25 -25
-47 -25 -49 0 -1 25 -8 56 -14 l56 -12 37 35 c20 19 55 41 79 48 23 7 42 15
42 19 0 4 -10 16 -22 27 l-23 20 -53 -24z"/>
<path d="M5135 1131 c-53 -25 -65 -36 -102 -98 -52 -85 -121 -142 -250 -207
-51 -25 -123 -65 -160 -88 -92 -56 -223 -90 -314 -82 -49 5 -93 1 -171 -16
-124 -26 -137 -32 -119 -54 17 -20 78 -21 233 -1 159 20 239 21 331 5 69 -11
87 -11 163 5 l85 18 84 96 c150 173 242 257 310 282 64 23 93 45 157 122 l40
47 -114 0 c-103 -1 -119 -4 -173 -29z"/>
<path d="M5520 1074 c0 -20 -8 -77 -17 -125 -15 -79 -15 -93 -2 -136 l15 -48
74 -3 73 -3 48 47 47 46 94 -71 c77 -58 102 -71 131 -71 21 0 37 2 37 5 0 3
-14 27 -31 55 -20 32 -62 74 -114 115 -67 53 -84 71 -89 99 -6 32 -10 35 -119
73 -61 22 -120 44 -129 48 -15 6 -18 2 -18 -31z"/>
<path d="M6833 990 c-10 -27 -9 -36 9 -65 l20 -35 -21 -29 -21 -29 43 -43 c35
-35 46 -56 56 -104 12 -55 21 -69 105 -160 51 -55 125 -141 164 -191 39 -50
109 -123 154 -161 84 -71 185 -139 194 -131 2 3 -7 30 -20 60 -28 64 -64 97
-156 143 -48 24 -82 51 -120 95 -52 60 -52 60 -46 113 7 52 6 54 -34 100 -23
26 -63 59 -90 74 -47 26 -52 33 -124 183 -42 85 -76 160 -76 166 0 5 -6 18
-13 27 -11 16 -13 15 -24 -13z"/>
<path d="M711 916 c-43 -44 -64 -57 -105 -67 -28 -6 -55 -14 -59 -17 -5 -2 12
-25 37 -51 28 -29 51 -63 59 -89 l12 -43 102 71 c95 66 149 119 141 139 -3 8
-124 111 -130 111 -2 0 -28 -24 -57 -54z"/>
<path d="M10280 878 c47 -43 93 -94 110 -125 23 -40 47 -64 105 -103 54 -37
90 -71 126 -120 28 -39 52 -70 54 -70 2 0 -2 21 -10 48 -16 52 -19 120 -6 140
7 11 26 9 106 -13 53 -14 98 -25 100 -23 1 2 6 17 9 34 7 31 6 32 -54 52 -47
16 -80 38 -141 93 l-80 72 -70 -10 -69 -11 -126 54 c-69 30 -127 54 -130 54
-3 0 31 -33 76 -72z"/>
<path d="M4225 891 c-33 -25 -49 -30 -95 -31 -31 0 -79 -9 -110 -21 -31 -12
-96 -24 -150 -28 -117 -10 -210 -38 -315 -95 -80 -43 -80 -44 -85 -90 -3 -25
-4 -46 -2 -46 1 0 36 18 76 40 64 35 81 40 138 40 41 0 86 8 124 21 43 16 96
24 196 29 125 7 139 10 170 34 62 47 100 102 96 142 l-3 35 -40 -30z"/>
<path d="M1123 846 c-10 -12 -27 -26 -38 -32 -32 -18 -7 -34 53 -34 31 0 106
-10 165 -22 l108 -23 142 36 c78 20 167 48 197 63 l55 25 -50 -6 c-78 -10
-483 -8 -551 3 -56 9 -63 9 -81 -10z"/>
<path d="M3246 805 c25 -30 50 -55 53 -55 16 0 51 47 51 68 0 24 -10 27 -98
36 l-53 5 47 -54z"/>
<path d="M970 701 c0 -65 -1 -63 71 -75 27 -5 40 -2 53 13 16 18 14 21 -41 70
-32 28 -64 51 -70 51 -9 0 -13 -18 -13 -59z"/>
<path d="M10980 625 l-23 -24 49 -22 c27 -11 66 -23 87 -26 l37 -6 0 42 0 41
-46 0 c-25 0 -53 4 -63 10 -14 7 -24 4 -41 -15z"/>
</g>
</svg>
